<svg fill="#fff" xmlns="http://www.w3.org/2000/svg" viewBox="0 0 512 512"><path d="M464 0H48C21.49 0 0 21.49 0 48v416c0 26.51 21.49 48 48 48h416c26.51 0 48-21.49 48-48V48c0-26.51-21.49-48-48-48zm16 464c0 8.837-7.163 16-16 16H48c-8.837 0-16-7.163-16-16V160h448v304zm0-336H32V48c0-8.837 7.163-16 16-16h416c8.837 0 16 7.163 16 16v80z"/><path d="M64 64h32v32H64zm64 0h32v32h-32zm288 0h32v32h-32zM164.64 395.36l22.56-22.56-52.64-52.8 52.64-52.64-22.56-22.56-64 64c-6.204 6.241-6.204 16.319 0 22.56l64 64zm182.72 0l64-64c6.204-6.241 6.204-16.319 0-22.56l-64-64-22.56 22.56L377.44 320l-52.64 52.64 22.56 22.72zm-74.185-161.142l29.709 11.888-64.017 159.982-29.709-11.888z"/></svg>