<svg height="512" viewBox="0 0 50 60" width="512" xmlns="http://www.w3.org/2000/svg"><g fill="#FFF"><path d="M42.081 20.01l7.841-18.622A1 1 0 0049 0H9a1 1 0 00-.922.612l-8 19a1.01 1.01 0 00-.007.76l7.858 19.643-6.867 18.639A1 1 0 002 60h40a1 1 0 00.938-.654l7-19a1 1 0 00-.009-.718zM9.664 2h37.83l-7.158 17H2.506zM2.477 21h37.846l7.2 18H9.677zM41.3 58H3.435L9.7 41h37.866z"/><path d="M10 26h26a1 1 0 000-2H10a1 1 0 000 2zm9 4a1 1 0 00-1-1h-6a1 1 0 000 2h6a1 1 0 001-1zm2 0a1 1 0 001 1h16a1 1 0 000-2H22a1 1 0 00-1 1zm-7 5a1 1 0 001 1h25a1 1 0 000-2H15a1 1 0 00-1 1zm10.819 8.426A1 1 0 0024 43H12a1 1 0 00-.939.658l-4 11A1 1 0 008 56h12a1 1 0 00.939-.658l4-11a1 1 0 00-.12-.916zM19.3 54H9.428l3.272-9h9.872zm5.859-37.458A1 1 0 0026 17h12a1 1 0 00.91-.586l5-11A1 1 0 0043 4H31a1 1 0 00-.91.586l-5 11a1 1 0 00.069.956zM31.644 6h9.8l-4.091 9h-9.8zM42 45H29a1 1 0 000 2h13a1 1 0 000-2zm-2 4h-4a1 1 0 000 2h4a1 1 0 000-2zm-13 2h5a1 1 0 000-2h-5a1 1 0 000 2zm11 2H25a1 1 0 000 2h13a1 1 0 000-2zM8 15h13a1 1 0 000-2H8a1 1 0 000 2zm2-4h4a1 1 0 000-2h-4a1 1 0 100 2zm13-2h-5a1 1 0 000 2h5a1 1 0 000-2zM12 7h13a1 1 0 000-2H12a1 1 0 000 2z"/></g></svg>